<svg width="230" height="56" viewBox="0 0 230 56" xmlns="http://www.w3.org/2000/svg" role="img" aria-label="Finolube logo compact">
  <rect width="230" height="56" fill="none"/>
  <text x="4" y="38" font-family="Arial Black, Segoe UI, sans-serif" font-size="36" font-weight="900" fill="#262626" letter-spacing="0.6">FIN</text>
  <text x="94" y="38" font-family="Arial Black, Segoe UI, sans-serif" font-size="36" font-weight="900" fill="#262626" letter-spacing="0.6">LUBE</text>
  <g transform="translate(78 28)">
    <circle r="13" fill="#ed1c24"/>
    <rect x="-1.3" y="-21" width="2.6" height="6" rx="0.8" fill="#ed1c24"/>
    <rect x="-1.3" y="-21" width="2.6" height="6" rx="0.8" fill="#ed1c24" transform="rotate(45)"/>
    <rect x="-1.3" y="-21" width="2.6" height="6" rx="0.8" fill="#ed1c24" transform="rotate(90)"/>
    <rect x="-1.3" y="-21" width="2.6" height="6" rx="0.8" fill="#ed1c24" transform="rotate(135)"/>
    <rect x="-1.3" y="-21" width="2.6" height="6" rx="0.8" fill="#ed1c24" transform="rotate(180)"/>
    <rect x="-1.3" y="-21" width="2.6" height="6" rx="0.8" fill="#ed1c24" transform="rotate(225)"/>
    <rect x="-1.3" y="-21" width="2.6" height="6" rx="0.8" fill="#ed1c24" transform="rotate(270)"/>
    <rect x="-1.3" y="-21" width="2.6" height="6" rx="0.8" fill="#ed1c24" transform="rotate(315)"/>
    <circle r="8.5" fill="#ffffff"/>
    <path d="M0 -6 C2.5 -5 4.4 -2.1 3.8 1 C3.2 4.6 0.2 6.4 -2.4 5.3 C-5.1 4.2 -5.8 1.1 -4.3 -1.4 C-3.5 -2.8 -1.8 -4.6 0 -6 Z" fill="#ed1c24"/>
    <path d="M-1.2 -2.1 C-0.2 -1.7 0.5 -0.7 0.2 0.6 C-0.1 1.9 -1.1 2.5 -2 2.1 C-2.9 1.7 -3.1 0.8 -2.6 0.1 C-2.3 -0.5 -1.8 -1.3 -1.2 -2.1 Z" fill="#ffffff"/>
  </g>
</svg>