<svg width="360" height="90" viewBox="0 0 360 90" xmlns="http://www.w3.org/2000/svg" role="img" aria-label="Finolube logo">
  <rect width="360" height="90" fill="none"/>
  <path d="M6 31 H102" stroke="#ed1c24" stroke-width="4"/>
  <path d="M6 60 H102" stroke="#ed1c24" stroke-width="4"/>
  <path d="M138 31 H354" stroke="#262626" stroke-width="4"/>
  <path d="M138 60 H354" stroke="#262626" stroke-width="4"/>
  <text x="10" y="57" font-family="Arial Black, Segoe UI, sans-serif" font-size="52" font-weight="900" fill="#262626" letter-spacing="1">FIN</text>
  <text x="150" y="57" font-family="Arial Black, Segoe UI, sans-serif" font-size="52" font-weight="900" fill="#262626" letter-spacing="1">LUBE</text>
  <g transform="translate(120 45)">
    <circle r="20" fill="#ed1c24"/>
    <rect x="-2" y="-32" width="4" height="9" rx="1" fill="#ed1c24"/>
    <rect x="-2" y="-32" width="4" height="9" rx="1" fill="#ed1c24" transform="rotate(45)"/>
    <rect x="-2" y="-32" width="4" height="9" rx="1" fill="#ed1c24" transform="rotate(90)"/>
    <rect x="-2" y="-32" width="4" height="9" rx="1" fill="#ed1c24" transform="rotate(135)"/>
    <rect x="-2" y="-32" width="4" height="9" rx="1" fill="#ed1c24" transform="rotate(180)"/>
    <rect x="-2" y="-32" width="4" height="9" rx="1" fill="#ed1c24" transform="rotate(225)"/>
    <rect x="-2" y="-32" width="4" height="9" rx="1" fill="#ed1c24" transform="rotate(270)"/>
    <rect x="-2" y="-32" width="4" height="9" rx="1" fill="#ed1c24" transform="rotate(315)"/>
    <circle r="13" fill="#ffffff"/>
    <path d="M0 -10 C4 -8 7 -3 6 2 C5 8 0 11 -4 9 C-8 7 -9 2 -7 -2 C-6 -5 -3 -8 0 -10 Z" fill="#ed1c24"/>
    <path d="M-2 -4 C0 -3 1 -1 0 1 C-1 3 -3 4 -4 3 C-5 2 -5 0 -4 -1 C-3 -2 -3 -3 -2 -4 Z" fill="#ffffff"/>
  </g>
  <text x="152" y="82" font-family="Segoe UI, Arial, sans-serif" font-size="16" font-weight="700" fill="#262626">Growing Together.....</text>
</svg>